<svg width="42" height="42" viewBox="0 0 42 42" fill="none" xmlns="http://www.w3.org/2000/svg">
<path d="M24.4973 14.1391C24.4973 15.9989 22.9896 17.5066 21.1298 17.5066C19.2699 17.5066 17.7622 15.9989 17.7622 14.1391C17.7622 12.2792 19.2699 10.7715 21.1298 10.7715C22.9896 10.7715 24.4973 12.2792 24.4973 14.1391Z" stroke="#898989" stroke-width="2.02054"/>
<path d="M17.7622 20.875L14.2105 23.2428C13.2736 23.8674 12.7109 24.9189 12.7109 26.0448V27.7224C12.7109 28.5903 13.4145 29.2939 14.2824 29.2939H21.1298" stroke="#898989" stroke-width="2.02054" stroke-linecap="round" stroke-linejoin="round"/>
<path d="M28.7068 14.1387V21.7157M28.7068 21.7157V25.4787C28.7068 26.2278 28.1733 26.8812 27.4246 26.8576C26.1863 26.8186 24.4974 26.3745 24.4974 24.2414C24.4974 20.8738 28.7068 21.7157 28.7068 21.7157Z" stroke="#898989" stroke-width="1.68378" stroke-linecap="round" stroke-linejoin="round"/>
</svg>
