<svg width="42" height="42" viewBox="0 0 42 42" fill="none" xmlns="http://www.w3.org/2000/svg">
<path d="M8.50269 17.5V26.9907C8.50269 28.5249 9.74634 29.7685 11.2805 29.7685H30.7249C32.259 29.7685 33.5027 28.5249 33.5027 26.9907V17.5C33.5027 15.9659 32.259 14.7222 30.7249 14.7222H29.275C28.7412 14.7222 28.2334 14.4919 27.8818 14.0904L25.9479 11.8819C25.5963 11.4803 25.0884 11.25 24.5547 11.25H17.1128C16.5791 11.25 16.0713 11.4803 15.7196 11.8819L13.7857 14.0904C13.4341 14.4919 12.9263 14.7222 12.3925 14.7222H11.2805C9.74634 14.7222 8.50269 15.9659 8.50269 17.5Z" stroke="#898989" stroke-width="2" stroke-linecap="round" stroke-linejoin="round"/>
<circle cx="21.0027" cy="20.9714" r="4.16667" stroke="#898989" stroke-width="2"/>
</svg>
