<svg width="42" height="41" viewBox="0 0 42 41" fill="none" xmlns="http://www.w3.org/2000/svg">
<path d="M30.2142 13.8318L30.2142 21.8195C30.2142 22.6942 29.5051 23.4033 28.6304 23.4033L26.9979 23.4033C26.4336 23.4033 25.912 23.7035 25.6285 24.1914L22.6368 29.3397C21.8238 30.7387 19.6835 30.162 19.6835 28.5439L19.6835 24.9872C19.6835 24.1124 18.9744 23.4033 18.0996 23.4033L15.9774 23.4033C13.9417 23.4033 12.4345 21.5108 12.89 19.5268L13.9966 14.7069C14.327 13.2679 15.6076 12.248 17.084 12.248L28.6304 12.248C29.5051 12.248 30.2142 12.9571 30.2142 13.8318Z" stroke="#898989" stroke-width="2"/>
</svg>
