<svg width="42" height="42" viewBox="0 0 42 42" fill="none" xmlns="http://www.w3.org/2000/svg">
<mask id="path-1-inside-1_261_21219" fill="white">
<path d="M17.9101 27.3417C17.5196 27.7322 16.8864 27.7322 16.4959 27.3417L14.3746 25.2204C13.9841 24.8299 13.9841 24.1967 14.3746 23.8062L28.1632 10.0176C29.1395 9.04129 30.7224 9.04129 31.6987 10.0176C32.675 10.9939 32.675 12.5768 31.6987 13.5531L17.9101 27.3417Z"/>
</mask>
<path d="M17.9101 27.3417C17.5196 27.7322 16.8864 27.7322 16.4959 27.3417L14.3746 25.2204C13.9841 24.8299 13.9841 24.1967 14.3746 23.8062L28.1632 10.0176C29.1395 9.04129 30.7224 9.04129 31.6987 10.0176C32.675 10.9939 32.675 12.5768 31.6987 13.5531L17.9101 27.3417Z" stroke="#898989" stroke-width="4" mask="url(#path-1-inside-1_261_21219)"/>
<path d="M13.2566 26.9303L14.7854 28.459L11.8808 29.8349L13.2566 26.9303Z" stroke="#E0E0E0" stroke-opacity="0.5" stroke-width="2" stroke-linecap="round"/>
</svg>
