<svg width="42" height="42" viewBox="0 0 42 42" fill="none" xmlns="http://www.w3.org/2000/svg">
<path d="M12.4955 28.163C12.3034 28.7133 11.7842 29.082 11.2012 29.082C10.2512 29.082 9.5892 28.1391 9.91191 27.2455L14.5797 14.3206C14.8659 13.5281 15.6182 13 16.4608 13H16.5345C17.3771 13 18.1294 13.5281 18.4156 14.3206L23.0734 27.2179C23.401 28.1249 22.729 29.082 21.7647 29.082C21.173 29.082 20.646 28.7078 20.451 28.1492L19.7127 26.0344C19.5725 25.6329 19.1938 25.364 18.7686 25.364H14.1827C13.7575 25.364 13.3788 25.6329 13.2386 26.0344L12.4955 28.163ZM16.1347 17.796L14.5428 22.3221C14.4285 22.6473 14.6698 22.988 15.0145 22.988H17.956C18.3015 22.988 18.5429 22.6459 18.427 22.3203L16.8167 17.796C16.7418 17.559 16.2168 17.5614 16.1347 17.796Z" fill="#898989"/>
<path d="M25.806 28.5231C25.6947 28.8105 25.4181 29 25.1099 29C24.5816 29 24.2205 28.4663 24.417 27.976L26.9159 21.7381C27.0945 21.2923 27.5264 21 28.0067 21C28.487 21 28.9189 21.2923 29.0976 21.7381L31.5903 27.9606C31.7897 28.4583 31.4232 29 30.887 29C30.5741 29 30.2934 28.8077 30.1804 28.5159L29.8904 27.767C29.7465 27.3954 29.389 27.1505 28.9905 27.1505H26.9986C26.6002 27.1505 26.2427 27.3954 26.0988 27.767L25.806 28.5231ZM27.8064 23.3858L26.7988 25.9685H29.2025L28.1827 23.3858C28.1379 23.2578 27.8555 23.2593 27.8064 23.3858Z" fill="#898989"/>
</svg>
