<svg width="41" height="41" viewBox="0 0 41 41" fill="none" xmlns="http://www.w3.org/2000/svg">
<path d="M29.8163 14.7348C29.8163 16.5946 28.3085 18.1023 26.4487 18.1023C24.5888 18.1023 23.0811 16.5946 23.0811 14.7348C23.0811 12.8749 24.5888 11.3672 26.4487 11.3672C28.3085 11.3672 29.8163 12.8749 29.8163 14.7348Z" stroke="#898989" stroke-width="2.02054"/>
<path d="M19.5293 23.8386L20.2791 23.3387C22.1062 22.1207 24.2528 21.4707 26.4487 21.4707C28.6445 21.4707 30.7912 22.1207 32.6182 23.3387L33.368 23.8386C34.3049 24.4631 34.8676 25.5146 34.8676 26.6405V28.3181C34.8676 29.186 34.164 29.8896 33.2961 29.8896H26.4487H19.6013C18.7334 29.8896 18.0298 29.186 18.0298 28.3181V26.6405C18.0298 25.5146 18.5925 24.4631 19.5293 23.8386Z" stroke="#898989" stroke-width="2.02054" stroke-linecap="round" stroke-linejoin="round"/>
<path d="M18.3974 14.7348C18.3974 16.5946 16.8897 18.1023 15.0298 18.1023C13.1699 18.1023 11.6622 16.5946 11.6622 14.7348C11.6622 12.8749 13.1699 11.3672 15.0298 11.3672C16.8897 11.3672 18.3974 12.8749 18.3974 14.7348Z" stroke="#898989" stroke-width="2.02054"/>
<path d="M15.0298 21.4707V21.4707C12.834 21.4707 10.6873 22.1207 8.86024 23.3387L8.11045 23.8386C7.17359 24.4631 6.61087 25.5146 6.61087 26.6405V28.3181C6.61087 29.186 7.31447 29.8896 8.1824 29.8896H14.2433" stroke="#898989" stroke-width="2.02054" stroke-linecap="round" stroke-linejoin="round"/>
</svg>
