<svg width="42" height="41" viewBox="0 0 42 41" fill="none" xmlns="http://www.w3.org/2000/svg">
<path d="M30.0649 14.7348C30.0649 16.5946 28.5572 18.1023 26.6973 18.1023C24.8375 18.1023 23.3298 16.5946 23.3298 14.7348C23.3298 12.8749 24.8375 11.3672 26.6973 11.3672C28.5572 11.3672 30.0649 12.8749 30.0649 14.7348Z" fill="#898989" stroke="#898989" stroke-width="2.02054"/>
<path d="M19.778 23.8386L20.5278 23.3387C22.3548 22.1207 24.5015 21.4707 26.6973 21.4707C28.8932 21.4707 31.0398 22.1207 32.8669 23.3387L33.6167 23.8386C34.5535 24.4631 35.1162 25.5146 35.1162 26.6405V28.3181C35.1162 29.186 34.4127 29.8896 33.5447 29.8896H26.6973H19.8499C18.982 29.8896 18.2784 29.186 18.2784 28.3181V26.6405C18.2784 25.5146 18.8411 24.4631 19.778 23.8386Z" fill="#898989" stroke="#898989" stroke-width="2.02054" stroke-linecap="round" stroke-linejoin="round"/>
<path d="M18.646 14.7348C18.646 16.5946 17.1383 18.1023 15.2785 18.1023C13.4186 18.1023 11.9109 16.5946 11.9109 14.7348C11.9109 12.8749 13.4186 11.3672 15.2785 11.3672C17.1383 11.3672 18.646 12.8749 18.646 14.7348Z" fill="#898989" stroke="#898989" stroke-width="2.02054"/>
<path d="M8.57759 23.8728L8.97495 23.6495C10.8998 22.568 13.0706 22 15.2784 22C15.2784 22 14.6332 24.2102 14.492 26C14.439 26.6708 14.433 27.5105 14.4427 28.2378C14.4547 29.1367 13.7383 29.8894 12.8394 29.8894H8.43106C7.56313 29.8894 6.85953 29.1858 6.85953 28.3178V26.8087C6.85953 25.5915 7.51639 24.469 8.57759 23.8728Z" fill="#898989" stroke="#898989" stroke-width="2.02054" stroke-linecap="round" stroke-linejoin="round"/>
</svg>
