<svg width="42" height="42" viewBox="0 0 42 42" fill="none" xmlns="http://www.w3.org/2000/svg">
<path d="M10.7676 20.1028V27.6113C10.7676 28.5412 11.5215 29.2951 12.4514 29.2951H15.819C16.3851 29.3238 16.8599 28.8724 16.8599 28.3055V23.3981C16.8599 22.4724 17.6071 21.7204 18.5328 21.7144L23.3203 21.6834C24.2545 21.6774 25.015 22.433 25.015 23.3672V28.3884C25.015 28.8891 25.4209 29.2951 25.9217 29.2951H29.2892C30.2192 29.2951 30.973 28.5412 30.973 27.6113V20.1028C30.973 19.6075 30.755 19.1374 30.3769 18.8174L21.9579 11.6937C21.3301 11.1625 20.4105 11.1625 19.7827 11.6937L11.3638 18.8174C10.9857 19.1374 10.7676 19.6075 10.7676 20.1028Z" fill="#898989" stroke="#898989" stroke-width="2.3573" stroke-linecap="round" stroke-linejoin="round"/>
</svg>
