<svg width="42" height="41" viewBox="0 0 42 41" fill="none" xmlns="http://www.w3.org/2000/svg">
<g clip-path="url(#clip0_113_2540)">
<path d="M26.4223 21.0924C29.2281 21.0924 31.5027 18.8178 31.5027 16.012C31.5027 13.2062 29.2281 10.9316 26.4223 10.9316C23.6165 10.9316 21.3419 13.2062 21.3419 16.012M26.4223 21.0924C23.6165 21.0924 21.3419 18.8178 21.3419 16.012M26.4223 21.0924L15.5569 30.7354C15.0757 31.1625 14.4546 31.3983 13.8112 31.3983V31.3983C12.3586 31.3983 11.1811 30.2103 11.1811 28.7578V28.7578C11.1811 28.1228 11.4096 27.5051 11.8247 27.0247L21.3419 16.012" stroke="#898989" stroke-width="1.68378"/>
</g>
<defs>
<clipPath id="clip0_113_2540">
<rect width="23.573" height="23.573" fill="white" transform="translate(9.49731 9.24805)"/>
</clipPath>
</defs>
</svg>
