<svg width="42" height="42" viewBox="0 0 42 42" fill="none" xmlns="http://www.w3.org/2000/svg">
<path d="M22.9882 14.4924L21.1243 16.2983L19.2605 14.4924C17.3062 12.5987 14.171 12.7033 12.3471 14.7229C10.5774 16.6827 10.3337 19.6181 11.9363 21.7168C12.1332 21.9747 12.3269 22.2217 12.5111 22.4478C13.6776 23.8787 16.2226 26.3777 17.4977 27.7188C18.4398 28.7096 19.2867 29.5359 19.9246 30.1378C20.5983 30.7734 21.6383 30.7595 22.3133 30.1253C23.4897 29.0199 25.2936 27.2982 26.5643 25.9618C27.8394 24.6207 28.5711 23.8787 29.7375 22.4478C29.9218 22.2217 30.1155 21.9747 30.3124 21.7168C31.915 19.6181 31.6713 16.6827 29.9015 14.7229C28.0777 12.7033 24.9425 12.5987 22.9882 14.4924Z" fill="#898989" stroke="#898989" stroke-width="2.02054" stroke-linecap="round" stroke-linejoin="round"/>
</svg>
