<svg width="41" height="42" viewBox="0 0 41 42" fill="none" xmlns="http://www.w3.org/2000/svg">
<path d="M14.9093 16.2168H25.6327" stroke="#1ED760" stroke-width="2" stroke-linecap="round"/>
<path d="M14.9093 21.4336H22.0583" stroke="#1ED760" stroke-width="2" stroke-linecap="round"/>
<path d="M9.99463 24.4783V13.6087C9.99463 12.168 11.1626 11 12.6033 11H28.3859C29.8267 11 30.9946 12.168 30.9946 13.6087V24.4783C30.9946 25.919 29.8267 27.087 28.3859 27.087H25.1002C24.3073 27.087 23.5575 27.4475 23.0624 28.0669L22.0765 29.3004C21.3803 30.1714 20.0558 30.1714 19.3595 29.3004L18.3736 28.0669C17.8786 27.4475 17.1288 27.087 16.3359 27.087H12.6033C11.1626 27.087 9.99463 25.919 9.99463 24.4783Z" stroke="#1ED760" stroke-width="2"/>
<circle cx="21.2429" cy="36" r="2" fill="#1ED760"/>
</svg>
