<svg width="41" height="42" viewBox="0 0 41 42" fill="none" xmlns="http://www.w3.org/2000/svg">
<path d="M14.6607 16.2168H25.3841" stroke="#898989" stroke-width="2" stroke-linecap="round"/>
<path d="M14.6607 21.4336H21.8096" stroke="#898989" stroke-width="2" stroke-linecap="round"/>
<path d="M9.74597 24.4783V13.6087C9.74597 12.168 10.9139 11 12.3547 11H28.1373C29.578 11 30.746 12.168 30.746 13.6087V24.4783C30.746 25.919 29.578 27.087 28.1373 27.087H24.8515C24.0587 27.087 23.3088 27.4475 22.8138 28.0669L21.8279 29.3004C21.1317 30.1714 19.8071 30.1714 19.1109 29.3004L18.125 28.0669C17.6299 27.4475 16.8801 27.087 16.0872 27.087H12.3547C10.9139 27.087 9.74597 25.919 9.74597 24.4783Z" stroke="#898989" stroke-width="2"/>
</svg>
