<svg width="41" height="42" viewBox="0 0 41 42" fill="none" xmlns="http://www.w3.org/2000/svg">
<rect width="20" height="20" rx="3" transform="matrix(1 0 0 -1 10.2487 32.248)" stroke="#898989" stroke-width="2" stroke-linejoin="round"/>
<path d="M12.2487 12.248H28.2487V12.248C28.2487 10.5912 26.9055 9.24805 25.2487 9.24805H15.2487C13.5918 9.24805 12.2487 10.5912 12.2487 12.248V12.248Z" stroke="#898989" stroke-width="1.5" stroke-linejoin="round"/>
<path d="M20.7613 23.2039V17.873C20.7613 17.5279 21.0411 17.248 21.3863 17.248H23.5027M20.7613 23.2039V26.221C20.7613 26.7758 20.3674 27.2592 19.8127 27.2469C18.8507 27.2255 17.5027 26.8918 17.5027 25.1892C17.5027 22.5422 20.7613 23.2039 20.7613 23.2039Z" stroke="#898989" stroke-width="1.5" stroke-linecap="round" stroke-linejoin="round"/>
</svg>
