<svg width="42" height="42" viewBox="0 0 42 42" fill="none" xmlns="http://www.w3.org/2000/svg">
<path d="M25.6581 13.3779C25.8668 13.8215 26.3956 14.0118 26.8391 13.8031C27.2827 13.5943 27.473 13.0656 27.2643 12.6221L25.6581 13.3779ZM14.7291 17.1006C15.6052 16.9584 15.6053 16.9588 15.6053 16.9592C15.6053 16.9593 15.6054 16.9596 15.6054 16.9598C15.6055 16.9602 15.6055 16.9604 15.6055 16.9606C15.6056 16.9609 15.6056 16.9608 15.6055 16.9602C15.6053 16.9592 15.6049 16.9565 15.6043 16.9522C15.6031 16.9437 15.601 16.9289 15.5983 16.9081C15.593 16.8666 15.5855 16.8018 15.5779 16.7169C15.5628 16.5468 15.5479 16.2987 15.5506 15.9991C15.5561 15.3939 15.6332 14.6107 15.9026 13.8448C16.1696 13.0856 16.617 12.3645 17.357 11.8281C18.0947 11.2934 19.1986 10.8876 20.8757 10.8876V9.11243C18.9034 9.11243 17.4142 9.59422 16.3152 10.3908C15.2184 11.1858 14.5853 12.2399 14.228 13.2558C13.8731 14.265 13.7821 15.257 13.7755 15.9831C13.7722 16.3492 13.7903 16.6558 13.8097 16.874C13.8194 16.9833 13.8295 17.071 13.8375 17.1336C13.8415 17.1648 13.845 17.1899 13.8477 17.2082C13.849 17.2174 13.8502 17.2249 13.8511 17.2306C13.8515 17.2335 13.8519 17.236 13.8522 17.238C13.8524 17.239 13.8525 17.2399 13.8526 17.2407C13.8527 17.2411 13.8528 17.2416 13.8528 17.2418C13.8529 17.2423 13.853 17.2428 14.7291 17.1006ZM20.8757 10.8876C22.3806 10.8876 23.4224 11.2145 24.1506 11.6647C24.8767 12.1136 25.3488 12.7207 25.6581 13.3779L27.2643 12.6221C26.8328 11.7053 26.1477 10.8124 25.0841 10.1548C24.0224 9.49849 22.6419 9.11243 20.8757 9.11243V10.8876Z" fill="#898989"/>
<path d="M27.0887 17.5449H14.6627C13.1921 17.5449 12 18.7371 12 20.2076V29.5272C12 30.9977 13.1921 32.1899 14.6627 32.1899H27.0887C28.5593 32.1899 29.7515 30.9977 29.7515 29.5272V20.2076C29.7515 18.7371 28.5593 17.5449 27.0887 17.5449Z" stroke="#898989" stroke-width="1.77515"/>
<circle cx="20.8757" cy="25.0885" r="2.66272" stroke="#898989" stroke-width="1.77515"/>
</svg>
