<svg width="42" height="42" viewBox="0 0 42 42" fill="none" xmlns="http://www.w3.org/2000/svg">
<circle cx="21.1297" cy="21.1246" r="1.96441" fill="#898989"/>
<path d="M24.5295 16.6387C25.7832 17.6385 26.5865 19.179 26.5865 20.9071C26.5865 22.6353 25.7832 24.1758 24.5295 25.1756M17.7301 25.1756C16.4764 24.1758 15.6731 22.6353 15.6731 20.9071C15.6731 19.2655 16.398 17.7932 17.5453 16.7928" stroke="#898989" stroke-width="1.96441" stroke-linecap="round" stroke-linejoin="round"/>
<path d="M27.2493 13.2676C29.5058 15.057 30.9518 17.8141 30.9518 20.907C30.9518 23.9999 29.5058 26.757 27.2493 28.5464M15.0102 28.5464C12.7537 26.757 11.3077 23.9999 11.3077 20.907C11.3077 17.9689 12.6126 15.3338 14.6776 13.5435" stroke="#898989" stroke-width="1.96441" stroke-linecap="round" stroke-linejoin="round"/>
</svg>
