<svg width="41" height="41" viewBox="0 0 41 41" fill="none" xmlns="http://www.w3.org/2000/svg">
<path d="M19.5806 11.3979C19.9266 10.5889 21.0734 10.5889 21.4194 11.3979L23.361 15.9379C23.5057 16.2761 23.8243 16.5076 24.1906 16.5406L29.1084 16.9843C29.9847 17.0633 30.3391 18.1541 29.6766 18.7331L25.9589 21.9826C25.6819 22.2247 25.5602 22.5993 25.642 22.9579L26.7397 27.772C26.9353 28.6299 26.0075 29.304 25.252 28.8529L21.0127 26.3212C20.6969 26.1326 20.3031 26.1326 19.9873 26.3212L15.748 28.8529C14.9925 29.304 14.0647 28.6299 14.2603 27.772L15.358 22.9579C15.4398 22.5993 15.3181 22.2247 15.0411 21.9826L11.3234 18.7331C10.6609 18.1541 11.0153 17.0633 11.8916 16.9843L16.8094 16.5406C17.1757 16.5076 17.4943 16.2761 17.639 15.9379L19.5806 11.3979Z" stroke="#898989" stroke-width="2"/>
</svg>
