<svg width="42" height="41" viewBox="0 0 42 41" fill="none" xmlns="http://www.w3.org/2000/svg">
<path d="M23.3543 32H19.1215C18.8394 32 18.5948 31.9083 18.3879 31.725C18.1809 31.5417 18.0587 31.3125 18.021 31.0375L17.6824 28.48C17.4379 28.3883 17.2076 28.2783 16.9916 28.15C16.7749 28.0217 16.5631 27.8842 16.3562 27.7375L13.9012 28.7275C13.6378 28.8192 13.3744 28.8283 13.111 28.755C12.8477 28.6817 12.6407 28.5258 12.4902 28.2875L10.4021 24.74C10.2516 24.5017 10.2046 24.245 10.261 23.97C10.3174 23.695 10.4585 23.475 10.6843 23.31L12.8006 21.7425C12.7818 21.6142 12.7724 21.4902 12.7724 21.3707V20.6282C12.7724 20.5094 12.7818 20.3858 12.8006 20.2575L10.6843 18.69C10.4585 18.525 10.3174 18.305 10.261 18.03C10.2046 17.755 10.2516 17.4983 10.4021 17.26L12.4902 13.7125C12.6219 13.4558 12.824 13.2952 13.0964 13.2307C13.3695 13.1669 13.6378 13.1808 13.9012 13.2725L16.3562 14.2625C16.5631 14.1158 16.7794 13.9783 17.0052 13.85C17.2309 13.7217 17.4567 13.6117 17.6824 13.52L18.021 10.9625C18.0587 10.6875 18.1809 10.4583 18.3879 10.275C18.5948 10.0917 18.8394 10 19.1215 10H23.3543C23.6365 10 23.881 10.0917 24.088 10.275C24.2949 10.4583 24.4172 10.6875 24.4548 10.9625L24.7934 13.52C25.038 13.6117 25.2686 13.7217 25.4853 13.85C25.7013 13.9783 25.9127 14.1158 26.1197 14.2625L28.5747 13.2725C28.838 13.1808 29.1014 13.1717 29.3648 13.245C29.6282 13.3183 29.8351 13.4742 29.9856 13.7125L32.0737 17.26C32.2242 17.4983 32.2713 17.755 32.2148 18.03C32.1584 18.305 32.0173 18.525 31.7916 18.69L29.6752 20.2575C29.694 20.3858 29.7034 20.5094 29.7034 20.6282V21.3707C29.7034 21.4902 29.6846 21.6142 29.647 21.7425L31.7633 23.31C31.9891 23.475 32.1302 23.695 32.1866 23.97C32.243 24.245 32.196 24.5017 32.0455 24.74L29.9574 28.26C29.8069 28.4983 29.5954 28.6589 29.323 28.7418C29.0499 28.8239 28.7816 28.8192 28.5182 28.7275L26.1197 27.7375C25.9127 27.8842 25.6964 28.0217 25.4707 28.15C25.2449 28.2783 25.0192 28.3883 24.7934 28.48L24.4548 31.0375C24.4172 31.3125 24.2949 31.5417 24.088 31.725C23.881 31.9083 23.6365 32 23.3543 32Z" stroke="#898989" stroke-width="2"/>
<circle cx="21.2379" cy="21.0002" r="3.34783" stroke="#898989" stroke-width="2"/>
</svg>
