<svg width="42" height="42" viewBox="0 0 42 42" fill="none" xmlns="http://www.w3.org/2000/svg">
<path d="M21.0734 27.667C19.1099 27.6536 17.3143 27.0352 15.7541 26.1631M21.0734 27.667V30.7487M21.0734 27.667C23.0923 27.6808 24.9248 27.0526 26.5031 26.1631M32.5379 20.5087C32.5379 20.5087 31.8926 21.5021 30.734 22.7487M9.5099 20.3513C9.5099 20.3513 10.2154 21.4244 11.4691 22.7487M11.4691 22.7487L8.75406 25.4637M11.4691 22.7487C12.534 23.8736 13.9944 25.1797 15.7541 26.1631M15.7541 26.1631L13.7541 29.2487M26.5031 26.1631L28.2541 29.2487M26.5031 26.1631C28.2593 25.1735 29.7008 23.8604 30.734 22.7487M30.734 22.7487L33.2541 25.2688" stroke="#898989" stroke-width="2" stroke-linecap="round"/>
</svg>
