<svg width="42" height="42" viewBox="0 0 42 42" fill="none" xmlns="http://www.w3.org/2000/svg">
<path d="M11.027 13.5509V13.5509C12.6067 13.5509 14.0836 14.334 14.9699 15.6415L15.8056 16.8742L16.932 18.5358M29.6734 26.8439H24.7485C23.4282 26.8439 22.1603 26.3269 21.2164 25.4036L20.2878 24.4954M29.6734 26.8439L26.1811 30.3887M29.6734 26.8439L26.1811 23.2991" stroke="#898989" stroke-width="2.02054" stroke-linecap="round" stroke-linejoin="round"/>
<path d="M11.027 28.8741V28.8741C12.6106 28.8741 14.0952 28.1038 15.0069 26.8091L21.1797 18.0433C22.1259 16.6997 23.6665 15.9003 25.3098 15.9003H29.6734M29.6734 15.9003L26.1811 12.3555M29.6734 15.9003L26.1811 19.4451" stroke="#898989" stroke-width="2.02054" stroke-linecap="round" stroke-linejoin="round"/>
</svg>
