<svg width="42" height="42" viewBox="0 0 42 42" fill="none" xmlns="http://www.w3.org/2000/svg">
<path d="M22.5933 30.998C22.1933 30.998 21.906 30.869 21.7313 30.611C21.556 30.3524 21.535 30.0314 21.6683 29.648L25.3183 19.973C25.4183 19.7064 25.606 19.477 25.8813 19.285C26.156 19.0937 26.4433 18.998 26.7433 18.998C27.0266 18.998 27.31 19.0937 27.5933 19.285C27.8766 19.477 28.0683 19.7064 28.1683 19.973L31.8183 29.648C31.9516 30.0314 31.931 30.3524 31.7563 30.611C31.581 30.869 31.285 30.998 30.8683 30.998C30.685 30.998 30.5183 30.9397 30.3683 30.823C30.2183 30.7064 30.11 30.5647 30.0433 30.398L29.1933 27.948H24.3433L23.4683 30.398C23.4016 30.5647 23.285 30.7064 23.1183 30.823C22.9516 30.9397 22.7766 30.998 22.5933 30.998ZM24.9433 26.198H28.5433L26.7933 21.248H26.6933L24.9433 26.198ZM16.3933 17.548C16.66 18.0314 16.9433 18.477 17.2433 18.885C17.5433 19.2937 17.8933 19.7147 18.2933 20.148C19.0266 19.348 19.635 18.5274 20.1183 17.686C20.6016 16.844 21.01 15.948 21.3433 14.998H11.2433C10.96 14.998 10.7226 14.9024 10.5313 14.711C10.3393 14.519 10.2433 14.2814 10.2433 13.998C10.2433 13.7147 10.3393 13.477 10.5313 13.285C10.7226 13.0937 10.96 12.998 11.2433 12.998H17.2433V11.998C17.2433 11.7147 17.3393 11.477 17.5313 11.285C17.7226 11.0937 17.96 10.998 18.2433 10.998C18.5266 10.998 18.7643 11.0937 18.9563 11.285C19.1476 11.477 19.2433 11.7147 19.2433 11.998V12.998H25.2433C25.5266 12.998 25.764 13.0937 25.9553 13.285C26.1473 13.477 26.2433 13.7147 26.2433 13.998C26.2433 14.2814 26.1473 14.519 25.9553 14.711C25.764 14.9024 25.5266 14.998 25.2433 14.998H23.3433C22.9933 16.1814 22.5183 17.3314 21.9183 18.448C21.3183 19.5647 20.5766 20.6147 19.6933 21.598L22.0933 24.048L21.3433 26.098L18.2433 22.998L13.9433 27.298C13.76 27.4814 13.5266 27.573 13.2433 27.573C12.96 27.573 12.7266 27.4814 12.5433 27.298C12.36 27.1147 12.2683 26.8814 12.2683 26.598C12.2683 26.3147 12.36 26.0814 12.5433 25.898L16.8933 21.548C16.4433 21.0314 16.0266 20.5104 15.6433 19.985C15.26 19.4604 14.9183 18.9064 14.6183 18.323C14.435 17.973 14.4266 17.6647 14.5933 17.398C14.76 17.1314 15.0516 16.998 15.4683 16.998C15.635 16.998 15.81 17.052 15.9933 17.16C16.1766 17.2687 16.31 17.398 16.3933 17.548Z" fill="#898989"/>
</svg>
