<svg width="42" height="42" viewBox="0 0 42 42" fill="none" xmlns="http://www.w3.org/2000/svg">
<path d="M22.842 30.998C22.442 30.998 22.1546 30.869 21.98 30.611C21.8046 30.3524 21.7836 30.0314 21.917 29.648L25.567 19.973C25.667 19.7064 25.8546 19.477 26.13 19.285C26.4046 19.0937 26.692 18.998 26.992 18.998C27.2753 18.998 27.5586 19.0937 27.842 19.285C28.1253 19.477 28.317 19.7064 28.417 19.973L32.067 29.648C32.2003 30.0314 32.1796 30.3524 32.005 30.611C31.8296 30.869 31.5336 30.998 31.117 30.998C30.9336 30.998 30.767 30.9397 30.617 30.823C30.467 30.7064 30.3586 30.5647 30.292 30.398L29.442 27.948H24.592L23.717 30.398C23.6503 30.5647 23.5336 30.7064 23.367 30.823C23.2003 30.9397 23.0253 30.998 22.842 30.998ZM25.192 26.198H28.792L27.042 21.248H26.942L25.192 26.198ZM16.642 17.548C16.9086 18.0314 17.192 18.477 17.492 18.885C17.792 19.2937 18.142 19.7147 18.542 20.148C19.2753 19.348 19.8836 18.5274 20.367 17.686C20.8503 16.844 21.2586 15.948 21.592 14.998H11.492C11.2086 14.998 10.9713 14.9024 10.78 14.711C10.588 14.519 10.492 14.2814 10.492 13.998C10.492 13.7147 10.588 13.477 10.78 13.285C10.9713 13.0937 11.2086 12.998 11.492 12.998H17.492V11.998C17.492 11.7147 17.588 11.477 17.78 11.285C17.9713 11.0937 18.2086 10.998 18.492 10.998C18.7753 10.998 19.013 11.0937 19.205 11.285C19.3963 11.477 19.492 11.7147 19.492 11.998V12.998H25.492C25.7753 12.998 26.0126 13.0937 26.204 13.285C26.396 13.477 26.492 13.7147 26.492 13.998C26.492 14.2814 26.396 14.519 26.204 14.711C26.0126 14.9024 25.7753 14.998 25.492 14.998H23.592C23.242 16.1814 22.767 17.3314 22.167 18.448C21.567 19.5647 20.8253 20.6147 19.942 21.598L22.342 24.048L21.592 26.098L18.492 22.998L14.192 27.298C14.0086 27.4814 13.7753 27.573 13.492 27.573C13.2086 27.573 12.9753 27.4814 12.792 27.298C12.6086 27.1147 12.517 26.8814 12.517 26.598C12.517 26.3147 12.6086 26.0814 12.792 25.898L17.142 21.548C16.692 21.0314 16.2753 20.5104 15.892 19.985C15.5086 19.4604 15.167 18.9064 14.867 18.323C14.6836 17.973 14.6753 17.6647 14.842 17.398C15.0086 17.1314 15.3003 16.998 15.717 16.998C15.8836 16.998 16.0586 17.052 16.242 17.16C16.4253 17.2687 16.5586 17.398 16.642 17.548Z" fill="#1ED760"/>
<circle cx="21.2432" cy="36" r="2" fill="#1ED760"/>
</svg>
