<svg width="41" height="41" viewBox="0 0 41 41" fill="none" xmlns="http://www.w3.org/2000/svg">
<path d="M23.7406 13.891C23.7406 15.7509 22.2329 17.2586 20.373 17.2586C18.5132 17.2586 17.0055 15.7509 17.0055 13.891C17.0055 12.0311 18.5132 10.5234 20.373 10.5234C22.2329 10.5234 23.7406 12.0311 23.7406 13.891Z" fill="#898989" stroke="#898989" stroke-width="2.02054"/>
<path d="M13.4537 22.9948L14.2035 22.4949C16.0305 21.2769 18.1772 20.627 20.373 20.627C22.5688 20.627 24.7155 21.2769 26.5426 22.4949L27.2924 22.9948C28.2292 23.6194 28.7919 24.6708 28.7919 25.7968V27.4743C28.7919 28.3423 28.0883 29.0459 27.2204 29.0459H20.373H13.5256C12.6577 29.0459 11.9541 28.3423 11.9541 27.4743V25.7968C11.9541 24.6708 12.5168 23.6194 13.4537 22.9948Z" fill="#898989" stroke="#898989" stroke-width="2.02054" stroke-linecap="round" stroke-linejoin="round"/>
</svg>
