<svg width="42" height="41" viewBox="0 0 42 41" fill="none" xmlns="http://www.w3.org/2000/svg">
<path d="M24.4919 13.891C24.4919 15.7509 22.9842 17.2586 21.1244 17.2586C19.2645 17.2586 17.7568 15.7509 17.7568 13.891C17.7568 12.0311 19.2645 10.5234 21.1244 10.5234C22.9842 10.5234 24.4919 12.0311 24.4919 13.891Z" stroke="#898989" stroke-width="2.02054"/>
<path d="M14.205 22.9948L14.9548 22.4949C16.7818 21.2769 18.9285 20.627 21.1244 20.627C23.3202 20.627 25.4669 21.2769 27.2939 22.4949L28.0437 22.9948C28.9806 23.6194 29.5433 24.6708 29.5433 25.7968V27.4743C29.5433 28.3423 28.8397 29.0459 27.9718 29.0459H21.1244H14.277C13.409 29.0459 12.7054 28.3423 12.7054 27.4743V25.7968C12.7054 24.6708 13.2682 23.6194 14.205 22.9948Z" stroke="#898989" stroke-width="2.02054" stroke-linecap="round" stroke-linejoin="round"/>
</svg>
